<svg xmlns="http://www.w3.org/2000/svg" viewBox="0 0 62.19 11.91"><defs><style>.cls-1{fill:#eb0c00;}</style></defs><title>Asset 1</title><g id="Layer_2" data-name="Layer 2"><g id="Trace"><g id="Eyes"><path class="cls-1" d="M25.4,11.7C7.48,13.07,2.66,4.09,2.66,4.09S40.71,10.52,25.4,11.7Z"/><path class="cls-1" d="M25.4,11.7c-1,.06-2.09.1-3.13.18l-3.14,0a40.51,40.51,0,0,1-6.32-.61A21.69,21.69,0,0,1,6.64,9.24,15.45,15.45,0,0,1,3.85,7.38,13.7,13.7,0,0,1,2.59,6.21,8.29,8.29,0,0,1,1.45,4.74L0,2.31l2.89.42A101.3,101.3,0,0,1,18.21,6.24c2.51.78,5,1.58,7.48,2.51.61.24,1.23.46,1.83.74a8.19,8.19,0,0,1,.88.46c.26.18.61.36.68.75a.49.49,0,0,1-.31.41,2.17,2.17,0,0,1-.46.18,7.47,7.47,0,0,1-1,.2C26.7,11.59,26.05,11.65,25.4,11.7Zm0,0c.65-.06,1.3-.13,1.94-.24a6.76,6.76,0,0,0,.95-.24,2.09,2.09,0,0,0,.44-.19c.13-.08.26-.19.24-.32s-.39-.44-.66-.58a8,8,0,0,0-.89-.37c-.61-.21-1.23-.4-1.86-.55-2.53-.6-5.11-1-7.7-1.33C12.68,7.2,7.53,6.46,2.43,5.44l1.44-2a10.08,10.08,0,0,0,.72,1,11.15,11.15,0,0,0,.95,1.05A19.73,19.73,0,0,0,7.76,7.42a22.22,22.22,0,0,0,5.36,2.76c.49.16,1,.35,1.46.5l1.5.37a28.72,28.72,0,0,0,3.07.53c1,.09,2.08.17,3.12.2S24.36,11.73,25.4,11.7Z"/><path class="cls-1" d="M37.82,11.32C55.63,11.25,59.68,2,59.68,2S22.6,11.38,37.82,11.32Z"/><path class="cls-1" d="M37.82,11.32c1,0,2.07-.09,3.1-.15S43,10.88,44,10.71a28.38,28.38,0,0,0,3-.77l1.46-.49c.48-.18.94-.41,1.4-.61a22,22,0,0,0,5.07-3.16,19.59,19.59,0,0,0,2-2,11,11,0,0,0,.85-1.12,10,10,0,0,0,.62-1.09L60,3.31C55.07,4.73,50,5.87,45,6.95c-2.52.56-5,1.13-7.5,1.93-.61.2-1.21.43-1.8.69a7.89,7.89,0,0,0-.85.43c-.26.16-.57.36-.61.62s.13.24.27.3a2.07,2.07,0,0,0,.45.16,6.7,6.7,0,0,0,1,.16C36.52,11.3,37.17,11.31,37.82,11.32Zm0,0c-.65,0-1.29,0-1.94,0a7.41,7.41,0,0,1-1-.12,2.15,2.15,0,0,1-.47-.14.48.48,0,0,1-.34-.38c0-.39.37-.59.61-.8a8.13,8.13,0,0,1,.83-.53c.57-.32,1.16-.6,1.75-.88,2.36-1.11,4.77-2.11,7.19-3.08A99.8,99.8,0,0,1,59.34.65L62.19,0,60.94,2.53a8.21,8.21,0,0,1-1,1.55,13.59,13.59,0,0,1-1.15,1.26A15.31,15.31,0,0,1,56.16,7.4a21.5,21.5,0,0,1-5.93,2.52A40.24,40.24,0,0,1,44,11l-3.11.21C39.89,11.25,38.85,11.29,37.82,11.32Z"/></g></g></g></svg>